<svg width="100" height="16" viewBox="0 0 100 16" fill="none" xmlns="http://www.w3.org/2000/svg">
<path d="M15.3332 5.2132L11.3277 4.631C11.0345 4.58822 10.781 4.40355 10.6506 4.13749L8.8591 0.50241C8.52836 -0.167429 7.57577 -0.167429 7.24502 0.50241L5.45356 4.13749C5.32314 4.40355 5.0696 4.58822 4.77642 4.631L0.770944 5.2132C0.0332851 5.32067 -0.260944 6.22944 0.272215 6.75008L3.17068 9.58072C3.38248 9.78731 3.47952 10.0857 3.42944 10.3779L2.74499 14.3739C2.61979 15.1106 3.39083 15.6708 4.05024 15.3234L7.63315 13.437C7.89608 13.2993 8.20805 13.2993 8.47097 13.437L12.0539 15.3234C12.7133 15.6708 13.4854 15.1106 13.3581 14.3739L12.6747 10.3779C12.6246 10.0857 12.7206 9.78731 12.9334 9.58072L15.8319 6.75008C16.3651 6.22944 16.0708 5.32067 15.3332 5.2132Z" fill="white"/>
<path d="M36.307 5.2132L32.3015 4.631C32.0083 4.58822 31.7558 4.40355 31.6244 4.13749L29.8329 0.50241C29.5032 -0.167429 28.5496 -0.167429 28.2199 0.50241L26.4284 4.13749C26.2969 4.40355 26.0434 4.58822 25.7513 4.631L21.7458 5.2132C21.0071 5.32067 20.7128 6.22944 21.247 6.75008L24.1455 9.58072C24.3573 9.78731 24.4544 10.0857 24.4043 10.3779L23.7198 14.3739C23.5936 15.1106 24.3646 15.6708 25.0251 15.3234L28.6069 13.437C28.8699 13.2993 29.1829 13.2993 29.4448 13.437L33.0277 15.3234C33.6871 15.6708 34.4581 15.1106 34.3329 14.3739L33.6485 10.3779C33.5984 10.0857 33.6954 9.78731 33.9072 9.58072L36.8057 6.75008C37.3399 6.22944 37.0457 5.32067 36.307 5.2132Z" fill="white"/>
<path d="M57.2817 5.2132L53.2762 4.631C52.982 4.58822 52.7285 4.40355 52.598 4.13749L50.8066 0.50241C50.4769 -0.167429 49.5232 -0.167429 49.1935 0.50241L47.4021 4.13749C47.2717 4.40355 47.0181 4.58822 46.7239 4.631L42.7184 5.2132C41.9808 5.32067 41.6865 6.22944 42.2207 6.75008L45.1192 9.58072C45.331 9.78731 45.427 10.0857 45.3769 10.3779L44.6935 14.3739C44.5673 15.1106 45.3383 15.6708 45.9987 15.3234L49.5817 13.437C49.8435 13.2993 50.1566 13.2993 50.4184 13.437L54.0014 15.3234C54.6618 15.6708 55.4329 15.1106 55.3066 14.3739L54.6232 10.3779C54.5731 10.0857 54.6691 9.78731 54.8809 9.58072L57.7794 6.75008C58.3136 6.22944 58.0183 5.32067 57.2817 5.2132Z" fill="white"/>
<path d="M78.2544 5.2132L74.2489 4.631C73.9567 4.58822 73.7032 4.40355 73.5717 4.13749L71.7803 0.50241C71.4506 -0.167429 70.4969 -0.167429 70.1672 0.50241L68.3758 4.13749C68.2443 4.40355 67.9918 4.58822 67.6986 4.631L63.6932 5.2132C62.9545 5.32067 62.6602 6.22944 63.1944 6.75008L66.0929 9.58072C66.3047 9.78731 66.4017 10.0857 66.3517 10.3779L65.6672 14.3739C65.542 15.1106 66.3131 15.6708 66.9725 15.3234L70.5554 13.437C70.8173 13.2993 71.1303 13.2993 71.3932 13.437L74.9751 15.3234C75.6355 15.6708 76.4066 15.1106 76.2803 14.3739L75.5959 10.3779C75.5458 10.0857 75.6428 9.78731 75.8546 9.58072L78.7531 6.75008C79.2873 6.22944 78.9931 5.32067 78.2544 5.2132Z" fill="white"/>
<path d="M99.7277 6.75005C100.261 6.22941 99.9666 5.32064 99.2289 5.21317L95.2235 4.63097C94.9303 4.58819 94.6767 4.40352 94.5463 4.13746L92.7549 0.50238C92.4241 -0.16746 91.4715 -0.16746 91.1408 0.50238L89.3493 4.13746C89.2189 4.40352 88.9654 4.58819 88.6722 4.63097L84.6667 5.21317C83.929 5.32064 83.6348 6.22941 84.168 6.75005L87.0664 9.58069C87.2793 9.78728 87.3753 10.0857 87.3252 10.3778L86.6407 14.3739C86.5145 15.1105 87.2866 15.6708 87.946 15.3234L91.5289 13.437C91.7918 13.2992 92.1038 13.2992 92.3667 13.437L95.9496 15.3234C96.609 15.6708 97.3801 15.1105 97.2549 14.3739L96.5704 10.3778C96.5204 10.0857 96.6174 9.78728 96.8292 9.58069L99.7277 6.75005Z" fill="white"/>
</svg>
